solid ascii
 facet normal 0.221582 0.0917822 0.970813
  outer loop
   vertex 0.216942 0 0.450484
   vertex 0.153401 0.153401 0.450484
   vertex 0 0 0.5
  endloop
 endfacet
 facet normal 0.0917822 0.221582 0.970813
  outer loop
   vertex 0.153401 0.153401 0.450484
   vertex -9.48283e-009 0.216942 0.450484
   vertex 0 0 0.5
  endloop
 endfacet
 facet normal -0.0917822 0.221582 0.970813
  outer loop
   vertex -9.48283e-009 0.216942 0.450484
   vertex -0.153401 0.153401 0.450484
   vertex 0 0 0.5
  endloop
 endfacet
 facet normal -0.221582 0.0917822 0.970813
  outer loop
   vertex -0.153401 0.153401 0.450484
   vertex -0.216942 -1.89657e-008 0.450484
   vertex 0 0 0.5
  endloop
 endfacet
 facet normal -0.221582 -0.0917822 0.970813
  outer loop
   vertex -0.216942 -1.89657e-008 0.450484
   vertex -0.153401 -0.153401 0.450484
   vertex 0 0 0.5
  endloop
 endfacet
 facet normal -0.0917821 -0.221582 0.970813
  outer loop
   vertex -0.153401 -0.153401 0.450484
   vertex 2.84485e-008 -0.216942 0.450484
   vertex 0 0 0.5
  endloop
 endfacet
 facet normal 0.0917822 -0.221582 0.970813
  outer loop
   vertex 2.84485e-008 -0.216942 0.450484
   vertex 0.153401 -0.153401 0.450484
   vertex 0 0 0.5
  endloop
 endfacet
 facet normal 0.221582 -0.0917821 0.970813
  outer loop
   vertex 0.153401 -0.153401 0.450484
   vertex 0.216942 0 0.450484
   vertex 0 0 0.5
  endloop
 endfacet
 facet normal 0.221582 0.0917821 -0.970813
  outer loop
   vertex 0.216942 0 -0.450484
   vertex 0 0 -0.5
   vertex 0.153401 0.153401 -0.450484
  endloop
 endfacet
 facet normal 0.0917821 0.221582 -0.970813
  outer loop
   vertex 0.153401 0.153401 -0.450484
   vertex 0 0 -0.5
   vertex -9.48283e-009 0.216942 -0.450484
  endloop
 endfacet
 facet normal -0.0917821 0.221582 -0.970813
  outer loop
   vertex -9.48283e-009 0.216942 -0.450484
   vertex 0 0 -0.5
   vertex -0.153401 0.153401 -0.450484
  endloop
 endfacet
 facet normal -0.221582 0.0917821 -0.970813
  outer loop
   vertex -0.153401 0.153401 -0.450484
   vertex 0 0 -0.5
   vertex -0.216942 -1.89657e-008 -0.450484
  endloop
 endfacet
 facet normal -0.221582 -0.0917821 -0.970813
  outer loop
   vertex -0.216942 -1.89657e-008 -0.450484
   vertex 0 0 -0.5
   vertex -0.153401 -0.153401 -0.450484
  endloop
 endfacet
 facet normal -0.0917821 -0.221582 -0.970813
  outer loop
   vertex -0.153401 -0.153401 -0.450484
   vertex 0 0 -0.5
   vertex 2.84485e-008 -0.216942 -0.450484
  endloop
 endfacet
 facet normal 0.0917822 -0.221582 -0.970813
  outer loop
   vertex 2.84485e-008 -0.216942 -0.450484
   vertex 0 0 -0.5
   vertex 0.153401 -0.153401 -0.450484
  endloop
 endfacet
 facet normal 0.221582 -0.0917821 -0.970813
  outer loop
   vertex 0.153401 -0.153401 -0.450484
   vertex 0 0 -0.5
   vertex 0.216942 0 -0.450484
  endloop
 endfacet
 facet normal 0.603683 0.250054 0.756994
  outer loop
   vertex 0.216942 0 0.450484
   vertex 0.390916 0 0.311745
   vertex 0.276419 0.276419 0.311745
  endloop
 endfacet
 facet normal 0.603683 0.250054 0.756994
  outer loop
   vertex 0.216942 0 0.450484
   vertex 0.276419 0.276419 0.311745
   vertex 0.153401 0.153401 0.450484
  endloop
 endfacet
 facet normal 0.844104 0.349639 0.406499
  outer loop
   vertex 0.390916 0 0.311745
   vertex 0.487464 0 0.11126
   vertex 0.344689 0.344689 0.11126
  endloop
 endfacet
 facet normal 0.844104 0.349639 0.406499
  outer loop
   vertex 0.390916 0 0.311745
   vertex 0.344689 0.344689 0.11126
   vertex 0.276419 0.276419 0.311745
  endloop
 endfacet
 facet normal 0.92388 0.382683 -0
  outer loop
   vertex 0.487464 0 0.11126
   vertex 0.487464 0 -0.11126
   vertex 0.344689 0.344689 -0.11126
  endloop
 endfacet
 facet normal 0.92388 0.382683 -0
  outer loop
   vertex 0.487464 0 0.11126
   vertex 0.344689 0.344689 -0.11126
   vertex 0.344689 0.344689 0.11126
  endloop
 endfacet
 facet normal 0.844104 0.349639 -0.406499
  outer loop
   vertex 0.487464 0 -0.11126
   vertex 0.390916 0 -0.311745
   vertex 0.276419 0.276419 -0.311745
  endloop
 endfacet
 facet normal 0.844104 0.349639 -0.406499
  outer loop
   vertex 0.487464 0 -0.11126
   vertex 0.276419 0.276419 -0.311745
   vertex 0.344689 0.344689 -0.11126
  endloop
 endfacet
 facet normal 0.603683 0.250054 -0.756994
  outer loop
   vertex 0.390916 0 -0.311745
   vertex 0.216942 0 -0.450484
   vertex 0.153401 0.153401 -0.450484
  endloop
 endfacet
 facet normal 0.603683 0.250054 -0.756994
  outer loop
   vertex 0.390916 0 -0.311745
   vertex 0.153401 0.153401 -0.450484
   vertex 0.276419 0.276419 -0.311745
  endloop
 endfacet
 facet normal 0.250054 0.603683 0.756994
  outer loop
   vertex 0.153401 0.153401 0.450484
   vertex 0.276419 0.276419 0.311745
   vertex -1.70875e-008 0.390916 0.311745
  endloop
 endfacet
 facet normal 0.250054 0.603683 0.756994
  outer loop
   vertex 0.153401 0.153401 0.450484
   vertex -1.70875e-008 0.390916 0.311745
   vertex -9.48283e-009 0.216942 0.450484
  endloop
 endfacet
 facet normal 0.349639 0.844104 0.406499
  outer loop
   vertex 0.276419 0.276419 0.311745
   vertex 0.344689 0.344689 0.11126
   vertex -2.13077e-008 0.487464 0.11126
  endloop
 endfacet
 facet normal 0.349639 0.844104 0.406499
  outer loop
   vertex 0.276419 0.276419 0.311745
   vertex -2.13077e-008 0.487464 0.11126
   vertex -1.70875e-008 0.390916 0.311745
  endloop
 endfacet
 facet normal 0.382683 0.92388 -0
  outer loop
   vertex 0.344689 0.344689 0.11126
   vertex 0.344689 0.344689 -0.11126
   vertex -2.13077e-008 0.487464 -0.11126
  endloop
 endfacet
 facet normal 0.382683 0.92388 -0
  outer loop
   vertex 0.344689 0.344689 0.11126
   vertex -2.13077e-008 0.487464 -0.11126
   vertex -2.13077e-008 0.487464 0.11126
  endloop
 endfacet
 facet normal 0.349639 0.844104 -0.406499
  outer loop
   vertex 0.344689 0.344689 -0.11126
   vertex 0.276419 0.276419 -0.311745
   vertex -1.70875e-008 0.390916 -0.311745
  endloop
 endfacet
 facet normal 0.349639 0.844104 -0.406499
  outer loop
   vertex 0.344689 0.344689 -0.11126
   vertex -1.70875e-008 0.390916 -0.311745
   vertex -2.13077e-008 0.487464 -0.11126
  endloop
 endfacet
 facet normal 0.250054 0.603683 -0.756994
  outer loop
   vertex 0.276419 0.276419 -0.311745
   vertex 0.153401 0.153401 -0.450484
   vertex -9.48283e-009 0.216942 -0.450484
  endloop
 endfacet
 facet normal 0.250054 0.603683 -0.756994
  outer loop
   vertex 0.276419 0.276419 -0.311745
   vertex -9.48283e-009 0.216942 -0.450484
   vertex -1.70875e-008 0.390916 -0.311745
  endloop
 endfacet
 facet normal -0.250054 0.603683 0.756994
  outer loop
   vertex -9.48283e-009 0.216942 0.450484
   vertex -1.70875e-008 0.390916 0.311745
   vertex -0.276419 0.276419 0.311745
  endloop
 endfacet
 facet normal -0.250054 0.603683 0.756994
  outer loop
   vertex -9.48283e-009 0.216942 0.450484
   vertex -0.276419 0.276419 0.311745
   vertex -0.153401 0.153401 0.450484
  endloop
 endfacet
 facet normal -0.349639 0.844104 0.406499
  outer loop
   vertex -1.70875e-008 0.390916 0.311745
   vertex -2.13077e-008 0.487464 0.11126
   vertex -0.344689 0.344689 0.11126
  endloop
 endfacet
 facet normal -0.349639 0.844104 0.406499
  outer loop
   vertex -1.70875e-008 0.390916 0.311745
   vertex -0.344689 0.344689 0.11126
   vertex -0.276419 0.276419 0.311745
  endloop
 endfacet
 facet normal -0.382683 0.92388 0
  outer loop
   vertex -2.13077e-008 0.487464 0.11126
   vertex -2.13077e-008 0.487464 -0.11126
   vertex -0.344689 0.344689 -0.11126
  endloop
 endfacet
 facet normal -0.382683 0.92388 0
  outer loop
   vertex -2.13077e-008 0.487464 0.11126
   vertex -0.344689 0.344689 -0.11126
   vertex -0.344689 0.344689 0.11126
  endloop
 endfacet
 facet normal -0.349639 0.844104 -0.406499
  outer loop
   vertex -2.13077e-008 0.487464 -0.11126
   vertex -1.70875e-008 0.390916 -0.311745
   vertex -0.276419 0.276419 -0.311745
  endloop
 endfacet
 facet normal -0.349639 0.844104 -0.406499
  outer loop
   vertex -2.13077e-008 0.487464 -0.11126
   vertex -0.276419 0.276419 -0.311745
   vertex -0.344689 0.344689 -0.11126
  endloop
 endfacet
 facet normal -0.250054 0.603683 -0.756994
  outer loop
   vertex -1.70875e-008 0.390916 -0.311745
   vertex -9.48283e-009 0.216942 -0.450484
   vertex -0.153401 0.153401 -0.450484
  endloop
 endfacet
 facet normal -0.250054 0.603683 -0.756994
  outer loop
   vertex -1.70875e-008 0.390916 -0.311745
   vertex -0.153401 0.153401 -0.450484
   vertex -0.276419 0.276419 -0.311745
  endloop
 endfacet
 facet normal -0.603683 0.250054 0.756994
  outer loop
   vertex -0.153401 0.153401 0.450484
   vertex -0.276419 0.276419 0.311745
   vertex -0.390916 -3.41749e-008 0.311745
  endloop
 endfacet
 facet normal -0.603683 0.250054 0.756994
  outer loop
   vertex -0.153401 0.153401 0.450484
   vertex -0.390916 -3.41749e-008 0.311745
   vertex -0.216942 -1.89657e-008 0.450484
  endloop
 endfacet
 facet normal -0.844104 0.349639 0.406499
  outer loop
   vertex -0.276419 0.276419 0.311745
   vertex -0.344689 0.344689 0.11126
   vertex -0.487464 -4.26155e-008 0.11126
  endloop
 endfacet
 facet normal -0.844104 0.349639 0.406499
  outer loop
   vertex -0.276419 0.276419 0.311745
   vertex -0.487464 -4.26155e-008 0.11126
   vertex -0.390916 -3.41749e-008 0.311745
  endloop
 endfacet
 facet normal -0.92388 0.382683 0
  outer loop
   vertex -0.344689 0.344689 0.11126
   vertex -0.344689 0.344689 -0.11126
   vertex -0.487464 -4.26155e-008 -0.11126
  endloop
 endfacet
 facet normal -0.92388 0.382683 0
  outer loop
   vertex -0.344689 0.344689 0.11126
   vertex -0.487464 -4.26155e-008 -0.11126
   vertex -0.487464 -4.26155e-008 0.11126
  endloop
 endfacet
 facet normal -0.844104 0.349639 -0.406499
  outer loop
   vertex -0.344689 0.344689 -0.11126
   vertex -0.276419 0.276419 -0.311745
   vertex -0.390916 -3.41749e-008 -0.311745
  endloop
 endfacet
 facet normal -0.844104 0.349639 -0.406499
  outer loop
   vertex -0.344689 0.344689 -0.11126
   vertex -0.390916 -3.41749e-008 -0.311745
   vertex -0.487464 -4.26155e-008 -0.11126
  endloop
 endfacet
 facet normal -0.603683 0.250054 -0.756994
  outer loop
   vertex -0.276419 0.276419 -0.311745
   vertex -0.153401 0.153401 -0.450484
   vertex -0.216942 -1.89657e-008 -0.450484
  endloop
 endfacet
 facet normal -0.603683 0.250054 -0.756994
  outer loop
   vertex -0.276419 0.276419 -0.311745
   vertex -0.216942 -1.89657e-008 -0.450484
   vertex -0.390916 -3.41749e-008 -0.311745
  endloop
 endfacet
 facet normal -0.603683 -0.250054 0.756994
  outer loop
   vertex -0.216942 -1.89657e-008 0.450484
   vertex -0.390916 -3.41749e-008 0.311745
   vertex -0.276419 -0.276419 0.311745
  endloop
 endfacet
 facet normal -0.603683 -0.250054 0.756994
  outer loop
   vertex -0.216942 -1.89657e-008 0.450484
   vertex -0.276419 -0.276419 0.311745
   vertex -0.153401 -0.153401 0.450484
  endloop
 endfacet
 facet normal -0.844104 -0.349639 0.406499
  outer loop
   vertex -0.390916 -3.41749e-008 0.311745
   vertex -0.487464 -4.26155e-008 0.11126
   vertex -0.344689 -0.344689 0.11126
  endloop
 endfacet
 facet normal -0.844104 -0.349639 0.406499
  outer loop
   vertex -0.390916 -3.41749e-008 0.311745
   vertex -0.344689 -0.344689 0.11126
   vertex -0.276419 -0.276419 0.311745
  endloop
 endfacet
 facet normal -0.92388 -0.382683 0
  outer loop
   vertex -0.487464 -4.26155e-008 0.11126
   vertex -0.487464 -4.26155e-008 -0.11126
   vertex -0.344689 -0.344689 -0.11126
  endloop
 endfacet
 facet normal -0.92388 -0.382683 0
  outer loop
   vertex -0.487464 -4.26155e-008 0.11126
   vertex -0.344689 -0.344689 -0.11126
   vertex -0.344689 -0.344689 0.11126
  endloop
 endfacet
 facet normal -0.844104 -0.349639 -0.406499
  outer loop
   vertex -0.487464 -4.26155e-008 -0.11126
   vertex -0.390916 -3.41749e-008 -0.311745
   vertex -0.276419 -0.276419 -0.311745
  endloop
 endfacet
 facet normal -0.844104 -0.349639 -0.406499
  outer loop
   vertex -0.487464 -4.26155e-008 -0.11126
   vertex -0.276419 -0.276419 -0.311745
   vertex -0.344689 -0.344689 -0.11126
  endloop
 endfacet
 facet normal -0.603683 -0.250054 -0.756994
  outer loop
   vertex -0.390916 -3.41749e-008 -0.311745
   vertex -0.216942 -1.89657e-008 -0.450484
   vertex -0.153401 -0.153401 -0.450484
  endloop
 endfacet
 facet normal -0.603683 -0.250054 -0.756994
  outer loop
   vertex -0.390916 -3.41749e-008 -0.311745
   vertex -0.153401 -0.153401 -0.450484
   vertex -0.276419 -0.276419 -0.311745
  endloop
 endfacet
 facet normal -0.250054 -0.603683 0.756994
  outer loop
   vertex -0.153401 -0.153401 0.450484
   vertex -0.276419 -0.276419 0.311745
   vertex 5.12624e-008 -0.390916 0.311745
  endloop
 endfacet
 facet normal -0.250054 -0.603683 0.756994
  outer loop
   vertex -0.153401 -0.153401 0.450484
   vertex 5.12624e-008 -0.390916 0.311745
   vertex 2.84485e-008 -0.216942 0.450484
  endloop
 endfacet
 facet normal -0.349639 -0.844104 0.406499
  outer loop
   vertex -0.276419 -0.276419 0.311745
   vertex -0.344689 -0.344689 0.11126
   vertex 6.39232e-008 -0.487464 0.11126
  endloop
 endfacet
 facet normal -0.349639 -0.844104 0.406499
  outer loop
   vertex -0.276419 -0.276419 0.311745
   vertex 6.39232e-008 -0.487464 0.11126
   vertex 5.12624e-008 -0.390916 0.311745
  endloop
 endfacet
 facet normal -0.382683 -0.92388 0
  outer loop
   vertex -0.344689 -0.344689 0.11126
   vertex -0.344689 -0.344689 -0.11126
   vertex 6.39232e-008 -0.487464 -0.11126
  endloop
 endfacet
 facet normal -0.382683 -0.92388 0
  outer loop
   vertex -0.344689 -0.344689 0.11126
   vertex 6.39232e-008 -0.487464 -0.11126
   vertex 6.39232e-008 -0.487464 0.11126
  endloop
 endfacet
 facet normal -0.349639 -0.844104 -0.406499
  outer loop
   vertex -0.344689 -0.344689 -0.11126
   vertex -0.276419 -0.276419 -0.311745
   vertex 5.12624e-008 -0.390916 -0.311745
  endloop
 endfacet
 facet normal -0.349639 -0.844104 -0.406499
  outer loop
   vertex -0.344689 -0.344689 -0.11126
   vertex 5.12624e-008 -0.390916 -0.311745
   vertex 6.39232e-008 -0.487464 -0.11126
  endloop
 endfacet
 facet normal -0.250053 -0.603683 -0.756994
  outer loop
   vertex -0.276419 -0.276419 -0.311745
   vertex -0.153401 -0.153401 -0.450484
   vertex 2.84485e-008 -0.216942 -0.450484
  endloop
 endfacet
 facet normal -0.250053 -0.603683 -0.756994
  outer loop
   vertex -0.276419 -0.276419 -0.311745
   vertex 2.84485e-008 -0.216942 -0.450484
   vertex 5.12624e-008 -0.390916 -0.311745
  endloop
 endfacet
 facet normal 0.250054 -0.603683 0.756994
  outer loop
   vertex 2.84485e-008 -0.216942 0.450484
   vertex 5.12624e-008 -0.390916 0.311745
   vertex 0.276419 -0.276419 0.311745
  endloop
 endfacet
 facet normal 0.250054 -0.603683 0.756994
  outer loop
   vertex 2.84485e-008 -0.216942 0.450484
   vertex 0.276419 -0.276419 0.311745
   vertex 0.153401 -0.153401 0.450484
  endloop
 endfacet
 facet normal 0.349639 -0.844104 0.406499
  outer loop
   vertex 5.12624e-008 -0.390916 0.311745
   vertex 6.39232e-008 -0.487464 0.11126
   vertex 0.344689 -0.344689 0.11126
  endloop
 endfacet
 facet normal 0.349639 -0.844104 0.406499
  outer loop
   vertex 5.12624e-008 -0.390916 0.311745
   vertex 0.344689 -0.344689 0.11126
   vertex 0.276419 -0.276419 0.311745
  endloop
 endfacet
 facet normal 0.382684 -0.923879 0
  outer loop
   vertex 6.39232e-008 -0.487464 0.11126
   vertex 6.39232e-008 -0.487464 -0.11126
   vertex 0.344689 -0.344689 -0.11126
  endloop
 endfacet
 facet normal 0.382684 -0.923879 0
  outer loop
   vertex 6.39232e-008 -0.487464 0.11126
   vertex 0.344689 -0.344689 -0.11126
   vertex 0.344689 -0.344689 0.11126
  endloop
 endfacet
 facet normal 0.349639 -0.844104 -0.406499
  outer loop
   vertex 6.39232e-008 -0.487464 -0.11126
   vertex 5.12624e-008 -0.390916 -0.311745
   vertex 0.276419 -0.276419 -0.311745
  endloop
 endfacet
 facet normal 0.349639 -0.844104 -0.406499
  outer loop
   vertex 6.39232e-008 -0.487464 -0.11126
   vertex 0.276419 -0.276419 -0.311745
   vertex 0.344689 -0.344689 -0.11126
  endloop
 endfacet
 facet normal 0.250054 -0.603683 -0.756994
  outer loop
   vertex 5.12624e-008 -0.390916 -0.311745
   vertex 2.84485e-008 -0.216942 -0.450484
   vertex 0.153401 -0.153401 -0.450484
  endloop
 endfacet
 facet normal 0.250054 -0.603683 -0.756994
  outer loop
   vertex 5.12624e-008 -0.390916 -0.311745
   vertex 0.153401 -0.153401 -0.450484
   vertex 0.276419 -0.276419 -0.311745
  endloop
 endfacet
 facet normal 0.603683 -0.250054 0.756994
  outer loop
   vertex 0.153401 -0.153401 0.450484
   vertex 0.276419 -0.276419 0.311745
   vertex 0.390916 0 0.311745
  endloop
 endfacet
 facet normal 0.603683 -0.250054 0.756994
  outer loop
   vertex 0.153401 -0.153401 0.450484
   vertex 0.390916 0 0.311745
   vertex 0.216942 0 0.450484
  endloop
 endfacet
 facet normal 0.844104 -0.349639 0.406499
  outer loop
   vertex 0.276419 -0.276419 0.311745
   vertex 0.344689 -0.344689 0.11126
   vertex 0.487464 0 0.11126
  endloop
 endfacet
 facet normal 0.844104 -0.349639 0.406499
  outer loop
   vertex 0.276419 -0.276419 0.311745
   vertex 0.487464 0 0.11126
   vertex 0.390916 0 0.311745
  endloop
 endfacet
 facet normal 0.92388 -0.382683 0
  outer loop
   vertex 0.344689 -0.344689 0.11126
   vertex 0.344689 -0.344689 -0.11126
   vertex 0.487464 0 -0.11126
  endloop
 endfacet
 facet normal 0.92388 -0.382683 0
  outer loop
   vertex 0.344689 -0.344689 0.11126
   vertex 0.487464 0 -0.11126
   vertex 0.487464 0 0.11126
  endloop
 endfacet
 facet normal 0.844104 -0.349639 -0.406499
  outer loop
   vertex 0.344689 -0.344689 -0.11126
   vertex 0.276419 -0.276419 -0.311745
   vertex 0.390916 0 -0.311745
  endloop
 endfacet
 facet normal 0.844104 -0.349639 -0.406499
  outer loop
   vertex 0.344689 -0.344689 -0.11126
   vertex 0.390916 0 -0.311745
   vertex 0.487464 0 -0.11126
  endloop
 endfacet
 facet normal 0.603683 -0.250054 -0.756994
  outer loop
   vertex 0.276419 -0.276419 -0.311745
   vertex 0.153401 -0.153401 -0.450484
   vertex 0.216942 0 -0.450484
  endloop
 endfacet
 facet normal 0.603683 -0.250054 -0.756994
  outer loop
   vertex 0.276419 -0.276419 -0.311745
   vertex 0.216942 0 -0.450484
   vertex 0.390916 0 -0.311745
  endloop
 endfacet
endsolid
